<mxfile host="app.diagrams.net" agent="Mozilla/5.0 (X11; Ubuntu; Linux x86_64; rv:138.0) Gecko/20100101 Firefox/138.0" version="26.2.14">
  <diagram name="PÃ¡gina-1" id="x7pmjmnGV-Pn86RtIntv">
    <mxGraphModel>
      <root>
        <mxCell id="0" />
        <mxCell id="1" parent="0" />
        <mxCell id="2" value="Database Normalization" style="whiteSpace=wrap;strokeWidth=2;verticalAlign=top;" vertex="1" parent="1">
          <mxGeometry x="8" y="264" width="316" height="516" as="geometry" />
        </mxCell>
        <mxCell id="3" value="First Normal Form" style="whiteSpace=wrap;strokeWidth=2;" vertex="1" parent="2">
          <mxGeometry x="71" y="46" width="189" height="54" as="geometry" />
        </mxCell>
        <mxCell id="4" value="Second Normal Form" style="whiteSpace=wrap;strokeWidth=2;" vertex="1" parent="2">
          <mxGeometry x="60" y="175" width="212" height="54" as="geometry" />
        </mxCell>
        <mxCell id="5" value="Third Normal Form" style="whiteSpace=wrap;strokeWidth=2;" vertex="1" parent="2">
          <mxGeometry x="69" y="304" width="194" height="54" as="geometry" />
        </mxCell>
        <mxCell id="6" value="Boyce-Codd Normal Form" style="whiteSpace=wrap;strokeWidth=2;" vertex="1" parent="2">
          <mxGeometry x="43" y="433" width="246" height="54" as="geometry" />
        </mxCell>
        <mxCell id="7" value="" style="curved=1;startArrow=none;endArrow=block;exitX=0.5;exitY=0.99;entryX=0.5;entryY=-0.01;" edge="1" parent="2" source="3" target="4">
          <mxGeometry relative="1" as="geometry">
            <Array as="points" />
          </mxGeometry>
        </mxCell>
        <mxCell id="8" value="" style="curved=1;startArrow=none;endArrow=block;exitX=0.5;exitY=0.99;entryX=0.5;entryY=-0.01;" edge="1" parent="2" source="4" target="5">
          <mxGeometry relative="1" as="geometry">
            <Array as="points" />
          </mxGeometry>
        </mxCell>
        <mxCell id="9" value="" style="curved=1;startArrow=none;endArrow=block;exitX=0.5;exitY=0.99;entryX=0.5;entryY=-0.01;" edge="1" parent="2" source="5" target="6">
          <mxGeometry relative="1" as="geometry">
            <Array as="points" />
          </mxGeometry>
        </mxCell>
        <mxCell id="10" value="Entity-Relationship Model" style="whiteSpace=wrap;strokeWidth=2;verticalAlign=top;" vertex="1" parent="1">
          <mxGeometry x="374" y="329" width="552" height="387" as="geometry" />
        </mxCell>
        <mxCell id="11" value="Entity" style="whiteSpace=wrap;strokeWidth=2;" vertex="1" parent="10">
          <mxGeometry x="270" y="46" width="100" height="54" as="geometry" />
        </mxCell>
        <mxCell id="12" value="Attribute" style="whiteSpace=wrap;strokeWidth=2;" vertex="1" parent="10">
          <mxGeometry x="155" y="175" width="120" height="54" as="geometry" />
        </mxCell>
        <mxCell id="13" value="Entity Relationships" style="whiteSpace=wrap;strokeWidth=2;" vertex="1" parent="10">
          <mxGeometry x="325" y="175" width="201" height="54" as="geometry" />
        </mxCell>
        <mxCell id="14" value="Primary Key" style="whiteSpace=wrap;strokeWidth=2;" vertex="1" parent="10">
          <mxGeometry x="43" y="304" width="147" height="54" as="geometry" />
        </mxCell>
        <mxCell id="15" value="Foreign Key" style="whiteSpace=wrap;strokeWidth=2;" vertex="1" parent="10">
          <mxGeometry x="260" y="304" width="146" height="54" as="geometry" />
        </mxCell>
        <mxCell id="16" value="" style="curved=1;startArrow=none;endArrow=block;exitX=0.06;exitY=0.99;entryX=0.5;entryY=-0.01;" edge="1" parent="10" source="11" target="12">
          <mxGeometry relative="1" as="geometry">
            <Array as="points">
              <mxPoint x="215" y="137" />
            </Array>
          </mxGeometry>
        </mxCell>
        <mxCell id="17" value="" style="curved=1;startArrow=none;endArrow=block;exitX=0.94;exitY=0.99;entryX=0.5;entryY=-0.01;" edge="1" parent="10" source="11" target="13">
          <mxGeometry relative="1" as="geometry">
            <Array as="points">
              <mxPoint x="425" y="137" />
            </Array>
          </mxGeometry>
        </mxCell>
        <mxCell id="18" value="" style="curved=1;startArrow=none;endArrow=block;exitX=0.16;exitY=0.99;entryX=0.5;entryY=-0.01;" edge="1" parent="10" source="12" target="14">
          <mxGeometry relative="1" as="geometry">
            <Array as="points">
              <mxPoint x="117" y="266" />
            </Array>
          </mxGeometry>
        </mxCell>
        <mxCell id="19" value="" style="curved=1;startArrow=none;endArrow=block;exitX=0.91;exitY=0.99;entryX=0.5;entryY=-0.01;" edge="1" parent="10" source="12" target="15">
          <mxGeometry relative="1" as="geometry">
            <Array as="points">
              <mxPoint x="334" y="266" />
            </Array>
          </mxGeometry>
        </mxCell>
        <mxCell id="20" value="Review for Data Base Theory" style="whiteSpace=wrap;strokeWidth=2;" vertex="1" parent="1">
          <mxGeometry x="1189" y="8" width="260" height="78" as="geometry" />
        </mxCell>
        <mxCell id="21" value="Fundamentals of Database Systems" style="whiteSpace=wrap;strokeWidth=2;" vertex="1" parent="1">
          <mxGeometry x="1189" y="136" width="260" height="78" as="geometry" />
        </mxCell>
        <mxCell id="22" value="Data Models" style="whiteSpace=wrap;strokeWidth=2;" vertex="1" parent="1">
          <mxGeometry x="976" y="495" width="150" height="54" as="geometry" />
        </mxCell>
        <mxCell id="23" value="Database Architecture" style="whiteSpace=wrap;strokeWidth=2;" vertex="1" parent="1">
          <mxGeometry x="1828" y="495" width="218" height="54" as="geometry" />
        </mxCell>
        <mxCell id="24" value="Database Management Systems" style="whiteSpace=wrap;strokeWidth=2;" vertex="1" parent="1">
          <mxGeometry x="2566" y="483" width="260" height="78" as="geometry" />
        </mxCell>
        <mxCell id="25" value="SQL Basics" style="whiteSpace=wrap;strokeWidth=2;" vertex="1" parent="1">
          <mxGeometry x="3184" y="495" width="144" height="54" as="geometry" />
        </mxCell>
        <mxCell id="26" value="Hierarchical Model" style="whiteSpace=wrap;strokeWidth=2;" vertex="1" parent="1">
          <mxGeometry x="489" y="830" width="193" height="54" as="geometry" />
        </mxCell>
        <mxCell id="27" value="Network Model" style="whiteSpace=wrap;strokeWidth=2;" vertex="1" parent="1">
          <mxGeometry x="731" y="830" width="167" height="54" as="geometry" />
        </mxCell>
        <mxCell id="28" value="Relational Model" style="whiteSpace=wrap;strokeWidth=2;" vertex="1" parent="1">
          <mxGeometry x="948" y="830" width="179" height="54" as="geometry" />
        </mxCell>
        <mxCell id="29" value="Object-Oriented Model" style="whiteSpace=wrap;strokeWidth=2;" vertex="1" parent="1">
          <mxGeometry x="1177" y="830" width="221" height="54" as="geometry" />
        </mxCell>
        <mxCell id="30" value="Single-tier Architecture" style="whiteSpace=wrap;strokeWidth=2;" vertex="1" parent="1">
          <mxGeometry x="1448" y="830" width="222" height="54" as="geometry" />
        </mxCell>
        <mxCell id="31" value="Two-tier Architecture" style="whiteSpace=wrap;strokeWidth=2;" vertex="1" parent="1">
          <mxGeometry x="1720" y="830" width="207" height="54" as="geometry" />
        </mxCell>
        <mxCell id="32" value="Three-tier Architecture" style="whiteSpace=wrap;strokeWidth=2;" vertex="1" parent="1">
          <mxGeometry x="1977" y="830" width="219" height="54" as="geometry" />
        </mxCell>
        <mxCell id="33" value="Functions of DBMS" style="whiteSpace=wrap;strokeWidth=2;" vertex="1" parent="1">
          <mxGeometry x="2246" y="830" width="198" height="54" as="geometry" />
        </mxCell>
        <mxCell id="34" value="DBMS Types" style="whiteSpace=wrap;strokeWidth=2;" vertex="1" parent="1">
          <mxGeometry x="2494" y="830" width="153" height="54" as="geometry" />
        </mxCell>
        <mxCell id="35" value="Transactions Management" style="whiteSpace=wrap;strokeWidth=2;" vertex="1" parent="1">
          <mxGeometry x="2697" y="830" width="249" height="54" as="geometry" />
        </mxCell>
        <mxCell id="36" value="DDL" style="whiteSpace=wrap;strokeWidth=2;" vertex="1" parent="1">
          <mxGeometry x="2996" y="830" width="92" height="54" as="geometry" />
        </mxCell>
        <mxCell id="37" value="DML" style="whiteSpace=wrap;strokeWidth=2;" vertex="1" parent="1">
          <mxGeometry x="3138" y="830" width="94" height="54" as="geometry" />
        </mxCell>
        <mxCell id="38" value="DCL" style="whiteSpace=wrap;strokeWidth=2;" vertex="1" parent="1">
          <mxGeometry x="3282" y="830" width="92" height="54" as="geometry" />
        </mxCell>
        <mxCell id="39" value="" style="curved=1;startArrow=none;endArrow=block;exitX=0.5;exitY=1;entryX=0.5;entryY=0;" edge="1" parent="1" source="20" target="21">
          <mxGeometry relative="1" as="geometry">
            <Array as="points" />
          </mxGeometry>
        </mxCell>
        <mxCell id="40" value="" style="curved=1;startArrow=none;endArrow=block;exitX=0;exitY=0.9;entryX=0.5;entryY=0;" edge="1" parent="1" source="21" target="22">
          <mxGeometry relative="1" as="geometry">
            <Array as="points">
              <mxPoint x="1051" y="239" />
            </Array>
          </mxGeometry>
        </mxCell>
        <mxCell id="41" value="" style="curved=1;startArrow=none;endArrow=block;exitX=1;exitY=0.67;entryX=0.5;entryY=0;" edge="1" parent="1" source="21" target="23">
          <mxGeometry relative="1" as="geometry">
            <Array as="points">
              <mxPoint x="1937" y="239" />
            </Array>
          </mxGeometry>
        </mxCell>
        <mxCell id="42" value="" style="curved=1;startArrow=none;endArrow=block;exitX=1;exitY=0.58;entryX=0.5;entryY=0;" edge="1" parent="1" source="21" target="24">
          <mxGeometry relative="1" as="geometry">
            <Array as="points">
              <mxPoint x="2696" y="239" />
            </Array>
          </mxGeometry>
        </mxCell>
        <mxCell id="43" value="" style="curved=1;startArrow=none;endArrow=block;exitX=1;exitY=0.56;entryX=0.5;entryY=0;" edge="1" parent="1" source="21" target="25">
          <mxGeometry relative="1" as="geometry">
            <Array as="points">
              <mxPoint x="3256" y="239" />
            </Array>
          </mxGeometry>
        </mxCell>
        <mxCell id="44" value="" style="curved=1;startArrow=none;endArrow=block;exitX=0.2;exitY=1;entryX=0.5;entryY=0;" edge="1" parent="1" source="22" target="26">
          <mxGeometry relative="1" as="geometry">
            <Array as="points">
              <mxPoint x="585" y="805" />
            </Array>
          </mxGeometry>
        </mxCell>
        <mxCell id="45" value="" style="curved=1;startArrow=none;endArrow=block;exitX=0.35;exitY=1;entryX=0.5;entryY=0;" edge="1" parent="1" source="22" target="27">
          <mxGeometry relative="1" as="geometry">
            <Array as="points">
              <mxPoint x="814" y="805" />
            </Array>
          </mxGeometry>
        </mxCell>
        <mxCell id="46" value="" style="curved=1;startArrow=none;endArrow=block;exitX=0.49;exitY=1;entryX=0.5;entryY=0;" edge="1" parent="1" source="22" target="28">
          <mxGeometry relative="1" as="geometry">
            <Array as="points">
              <mxPoint x="1037" y="805" />
            </Array>
          </mxGeometry>
        </mxCell>
        <mxCell id="47" value="" style="curved=1;startArrow=none;endArrow=block;exitX=0.65;exitY=1;entryX=0.5;entryY=0;" edge="1" parent="1" source="22" target="29">
          <mxGeometry relative="1" as="geometry">
            <Array as="points">
              <mxPoint x="1288" y="805" />
            </Array>
          </mxGeometry>
        </mxCell>
        <mxCell id="48" value="" style="curved=1;startArrow=none;endArrow=block;exitX=0.34;exitY=1;entryX=0.5;entryY=0;" edge="1" parent="1" source="23" target="30">
          <mxGeometry relative="1" as="geometry">
            <Array as="points">
              <mxPoint x="1559" y="805" />
            </Array>
          </mxGeometry>
        </mxCell>
        <mxCell id="49" value="" style="curved=1;startArrow=none;endArrow=block;exitX=0.45;exitY=1;entryX=0.5;entryY=0;" edge="1" parent="1" source="23" target="31">
          <mxGeometry relative="1" as="geometry">
            <Array as="points">
              <mxPoint x="1823" y="805" />
            </Array>
          </mxGeometry>
        </mxCell>
        <mxCell id="50" value="" style="curved=1;startArrow=none;endArrow=block;exitX=0.57;exitY=1;entryX=0.5;entryY=0;" edge="1" parent="1" source="23" target="32">
          <mxGeometry relative="1" as="geometry">
            <Array as="points">
              <mxPoint x="2086" y="805" />
            </Array>
          </mxGeometry>
        </mxCell>
        <mxCell id="51" value="" style="curved=1;startArrow=none;endArrow=block;exitX=0.31;exitY=1;entryX=0.5;entryY=0;" edge="1" parent="1" source="24" target="33">
          <mxGeometry relative="1" as="geometry">
            <Array as="points">
              <mxPoint x="2345" y="805" />
            </Array>
          </mxGeometry>
        </mxCell>
        <mxCell id="52" value="" style="curved=1;startArrow=none;endArrow=block;exitX=0.43;exitY=1;entryX=0.5;entryY=0;" edge="1" parent="1" source="24" target="34">
          <mxGeometry relative="1" as="geometry">
            <Array as="points">
              <mxPoint x="2570" y="805" />
            </Array>
          </mxGeometry>
        </mxCell>
        <mxCell id="53" value="" style="curved=1;startArrow=none;endArrow=block;exitX=0.57;exitY=1;entryX=0.5;entryY=0;" edge="1" parent="1" source="24" target="35">
          <mxGeometry relative="1" as="geometry">
            <Array as="points">
              <mxPoint x="2821" y="805" />
            </Array>
          </mxGeometry>
        </mxCell>
        <mxCell id="54" value="" style="curved=1;startArrow=none;endArrow=block;exitX=0.36;exitY=1;entryX=0.5;entryY=0;" edge="1" parent="1" source="25" target="36">
          <mxGeometry relative="1" as="geometry">
            <Array as="points">
              <mxPoint x="3042" y="805" />
            </Array>
          </mxGeometry>
        </mxCell>
        <mxCell id="55" value="" style="curved=1;startArrow=none;endArrow=block;exitX=0.45;exitY=1;entryX=0.5;entryY=0;" edge="1" parent="1" source="25" target="37">
          <mxGeometry relative="1" as="geometry">
            <Array as="points">
              <mxPoint x="3185" y="805" />
            </Array>
          </mxGeometry>
        </mxCell>
        <mxCell id="56" value="" style="curved=1;startArrow=none;endArrow=block;exitX=0.55;exitY=1;entryX=0.5;entryY=0;" edge="1" parent="1" source="25" target="38">
          <mxGeometry relative="1" as="geometry">
            <Array as="points">
              <mxPoint x="3328" y="805" />
            </Array>
          </mxGeometry>
        </mxCell>
        <mxCell id="57" value="" style="curved=1;startArrow=none;endArrow=block;exitX=0;exitY=0.66;entryX=0.5;entryY=0;" edge="1" parent="1" source="21" target="10">
          <mxGeometry relative="1" as="geometry">
            <Array as="points">
              <mxPoint x="650" y="239" />
            </Array>
          </mxGeometry>
        </mxCell>
        <mxCell id="58" value="" style="curved=1;startArrow=none;endArrow=block;exitX=0;exitY=0.59;entryX=0.5;entryY=0;" edge="1" parent="1" source="21" target="2">
          <mxGeometry relative="1" as="geometry">
            <Array as="points">
              <mxPoint x="166" y="239" />
            </Array>
          </mxGeometry>
        </mxCell>
      </root>
    </mxGraphModel>
  </diagram>
</mxfile>
